Coordinates
version=1
nRows=17
nColumns=40
inDegrees=yes

Units are S.I. units (second, meters, Newtons, ...)
If the header above contains a line with 'inDegrees', this indicates whether rotational values are in degrees (yes) or radians (no).

endheader
time	pelvis_tilt	pelvis_list	pelvis_rotation	pelvis_tx	pelvis_ty	pelvis_tz	hip_flexion_r	hip_adduction_r	hip_rotation_r	knee_angle_r	knee_angle_r_beta	ankle_angle_r	subtalar_angle_r	mtp_angle_r	hip_flexion_l	hip_adduction_l	hip_rotation_l	knee_angle_l	knee_angle_l_beta	ankle_angle_l	subtalar_angle_l	mtp_angle_l	lumbar_extension	lumbar_bending	lumbar_rotation	arm_flex_r	arm_add_r	arm_rot_r	elbow_flex_r	pro_sup_r	wrist_flex_r	wrist_dev_r	arm_flex_l	arm_add_l	arm_rot_l	elbow_flex_l	pro_sup_l	wrist_flex_l	wrist_dev_l
      4.30000000	     -7.81466000	     -8.67209495	      1.81022522	     -0.32182723	      0.70755072	     -0.97220996	     63.92020528	      0.55565338	     -7.68445593	      9.88346201	      0.17249895	    -18.64860864	      0.00000000	      0.00000000	     65.34492142	     -6.89266035	      2.03876142	     97.43937881	      1.70063798	     29.12565648	      0.00000000	      0.00000000	    -14.89944956	      0.95963701	      5.81799452	     89.93998517	    -13.89179521	     12.84171042	     37.83058305	     76.18906486	      0.00000000	      0.00000000	     89.94451001	    -26.53963408	     17.11989433	     43.99092801	     83.42704133	      0.00000000	      0.00000000
      4.30500000	     -7.80905638	     -8.65070004	      1.79770459	     -0.32176558	      0.70750794	     -0.97221563	     63.89128370	      0.56654550	     -7.61867185	      9.85568707	      0.17201419	    -18.70350828	      0.00000000	      0.00000000	     65.32532659	     -6.90638964	      1.99842992	     97.43399417	      1.70054400	     29.10298429	      0.00000000	      0.00000000	    -14.91957045	      0.94262181	      5.86201625	     89.94000289	    -13.96094769	     12.67097339	     37.79207755	     78.51250762	      0.00000000	      0.00000000	     89.94444553	    -26.49352197	     17.16192571	     43.96369848	     83.00220699	      0.00000000	      0.00000000
      4.31000000	     -7.75826094	     -8.58315712	      1.75554439	     -0.32166699	      0.70760448	     -0.97222334	     63.85101659	      0.60309787	     -7.56596312	      9.90509690	      0.17287655	    -18.70784382	      0.00000000	      0.00000000	     65.22639043	     -6.89120436	      1.93403727	     97.42919646	      1.70046027	     29.16389294	      0.00000000	      0.00000000	    -15.00763358	      0.87481964	      5.88163702	     89.93974910	    -13.94575576	     12.96824397	     37.82557489	     75.89529960	      0.00000000	      0.00000000	     89.94449565	    -26.51206025	     17.10023807	     43.95184360	     83.32486311	      0.00000000	      0.00000000
      4.31500000	     -7.79320773	     -8.54041738	      1.72333733	     -0.32167138	      0.70748647	     -0.97223203	     63.87244187	      0.61197288	     -7.46144211	      9.89709621	      0.17273692	    -18.73943046	      0.00000000	      0.00000000	     65.27470517	     -6.88559735	      1.87486833	     97.45819992	      1.70096647	     29.11168558	      0.00000000	      0.00000000	    -14.99735730	      0.83611351	      5.89770116	     89.93996851	    -13.97300304	     13.24889886	     37.86384488	     74.55198148	      0.00000000	      0.00000000	     89.94428164	    -26.49475797	     17.05468257	     43.92574020	     83.26272112	      0.00000000	      0.00000000
      4.32000000	     -7.76791010	     -8.54820200	      1.69183329	     -0.32157507	      0.70749753	     -0.97216998	     63.84456507	      0.66918910	     -7.58531362	      9.91610422	      0.17306867	    -18.71868292	      0.00000000	      0.00000000	     65.22553844	     -6.96165181	      1.82334290	     97.46046687	      1.70100604	     29.18744043	      0.00000000	      0.00000000	    -15.04484297	      0.83182867	      5.92186293	     89.93994867	    -13.93988830	     13.13753885	     37.87490311	     75.05363087	      0.00000000	      0.00000000	     89.94423757	    -26.51034587	     17.05044410	     43.94083891	     83.64925959	      0.00000000	      0.00000000
      4.32500000	     -7.77048132	     -8.49656957	      1.65820624	     -0.32153728	      0.70750129	     -0.97218234	     63.82281151	      0.69718036	     -7.41768585	      9.90898305	      0.17294438	    -18.68247289	      0.00000000	      0.00000000	     65.20413389	     -6.94258751	      1.75804739	     97.46704494	      1.70112085	     29.19768080	      0.00000000	      0.00000000	    -15.05760704	      0.77900637	      5.98259669	     89.93981228	    -13.96217620	     13.12302263	     37.86326261	     74.72570699	      0.00000000	      0.00000000	     89.94417343	    -26.45464766	     17.09170416	     43.87987636	     83.48527934	      0.00000000	      0.00000000
      4.33000000	     -7.75640978	     -8.50676728	      1.66447338	     -0.32148885	      0.70754662	     -0.97218360	     63.76981491	      0.72880461	     -7.38810030	      9.84811657	      0.17188206	    -18.81512652	      0.00000000	      0.00000000	     65.18138145	     -6.97628745	      1.73539387	     97.44338750	      1.70070795	     29.20799211	      0.00000000	      0.00000000	    -15.08892918	      0.78671748	      5.97232684	     89.94005705	    -13.95674718	     12.78641903	     37.78105026	     77.87099882	      0.00000000	      0.00000000	     89.94406597	    -26.46220445	     17.11263235	     43.87368340	     83.18391105	      0.00000000	      0.00000000
      4.33500000	     -7.78241020	     -8.49757601	      1.65610816	     -0.32144033	      0.70747926	     -0.97217329	     63.80158032	      0.74233526	     -7.43610101	      9.88964400	      0.17260685	    -18.84361285	      0.00000000	      0.00000000	     65.21861249	     -6.93952862	      1.75144823	     97.47794155	      1.70131103	     29.22521379	      0.00000000	      0.00000000	    -15.08004813	      0.78153187	      6.03095754	     89.93998491	    -14.00742578	     12.68859362	     37.77180434	     78.41968795	      0.00000000	      0.00000000	     89.94409384	    -26.41585029	     17.22264704	     43.84168086	     83.07411653	      0.00000000	      0.00000000
      4.34000000	     -7.78434284	     -8.48164911	      1.68351761	     -0.32143659	      0.70747091	     -0.97221786	     63.79274259	      0.73349177	     -7.41929346	      9.89366549	      0.17267704	    -18.80074659	      0.00000000	      0.00000000	     65.20010083	     -6.87122183	      1.78006609	     97.44479303	      1.70073248	     29.22013709	      0.00000000	      0.00000000	    -15.10686114	      0.78918455	      5.95995395	     89.93995061	    -13.92038624	     12.93305824	     37.81568760	     75.54649352	      0.00000000	      0.00000000	     89.94396174	    -26.50730352	     17.19222503	     43.86545334	     83.55364974	      0.00000000	      0.00000000
      4.34500000	     -7.78875298	     -8.46038724	      1.70194506	     -0.32140247	      0.70749798	     -0.97229512	     63.77414565	      0.73124471	     -7.34881413	      9.88036065	      0.17244482	    -18.79124605	      0.00000000	      0.00000000	     65.18320324	     -6.82489004	      1.78991725	     97.44484589	      1.70073340	     29.05413469	      0.00000000	      0.00000000	    -15.12230805	      0.77224182	      5.99871583	     89.94008916	    -14.00067488	     12.87540921	     37.82806501	     77.00359213	      0.00000000	      0.00000000	     89.94405682	    -26.39941734	     17.16190731	     43.78654564	     83.50014094	      0.00000000	      0.00000000
      4.35000000	     -7.77454798	     -8.41134559	      1.71574933	     -0.32133959	      0.70752423	     -0.97234824	     63.74277197	      0.71194261	     -7.22596736	      9.89113007	      0.17263279	    -18.75334558	      0.00000000	      0.00000000	     65.13789353	     -6.78466202	      1.73754724	     97.43197934	      1.70050884	     29.13158918	      0.00000000	      0.00000000	    -15.15575529	      0.73711003	      5.99031727	     89.94005653	    -14.00469699	     12.75991859	     37.78463082	     78.47535625	      0.00000000	      0.00000000	     89.94404705	    -26.38366024	     17.18896152	     43.75757155	     83.14575717	      0.00000000	      0.00000000
      4.35500000	     -7.79466561	     -8.43188938	      1.69443324	     -0.32133005	      0.70743598	     -0.97227194	     63.77246886	      0.75867052	     -7.21043589	      9.93260229	      0.17335661	    -18.84207572	      0.00000000	      0.00000000	     65.19398624	     -6.83675232	      1.72720960	     97.47435457	      1.70124842	     29.04877126	      0.00000000	      0.00000000	    -15.14760118	      0.76175780	      6.04499877	     89.93978306	    -14.14931391	     13.29339239	     37.87006493	     76.62036792	      0.00000000	      0.00000000	     89.94435953	    -26.34248503	     17.13961139	     43.71272923	     83.13725382	      0.00000000	      0.00000000
      4.36000000	     -7.80539766	     -8.42521646	      1.73330182	     -0.32131819	      0.70741794	     -0.97233226	     63.78533244	      0.73990025	     -7.22618668	      9.96996109	      0.17400865	    -18.89880667	      0.00000000	      0.00000000	     65.18944971	     -6.76585351	      1.75857826	     97.44645519	      1.70076149	     29.03409815	      0.00000000	      0.00000000	    -15.15014819	      0.78385667	      6.03762778	     89.94001525	    -14.16217732	     13.36298255	     37.89993293	     75.88316710	      0.00000000	      0.00000000	     89.94393406	    -26.38759318	     17.29043824	     43.69519996	     83.44173427	      0.00000000	      0.00000000
      4.36500000	     -7.78423880	     -8.43280866	      1.75051323	     -0.32133070	      0.70742266	     -0.97235231	     63.74827423	      0.76430478	     -7.21552404	      9.93692129	      0.17343199	    -18.96191906	      0.00000000	      0.00000000	     65.15454824	     -6.76630596	      1.74900317	     97.43743461	      1.70060405	     29.15040151	      0.00000000	      0.00000000	    -15.20829852	      0.80145394	      5.94899602	     89.93994437	    -14.04402990	     14.28313673	     38.22266768	     67.26502037	      0.00000000	      0.00000000	     89.94375850	    -26.49851322	     18.42846538	     44.03606094	     72.14933888	      0.00000000	      0.00000000
      4.37000000	     -7.86380399	     -8.42281178	      1.75838439	     -0.32133621	      0.70732877	     -0.97239926	     63.87346062	      0.75680583	     -7.14039164	     10.03999127	      0.17523090	    -18.98957642	      0.00000000	      0.00000000	     65.25966654	     -6.72768865	      1.75766563	     97.46257641	      1.70104286	     29.03114954	      0.00000000	      0.00000000	    -15.13312032	      0.80847768	      5.97692068	     89.94020332	    -14.10320246	     13.44709020	     37.94364723	     75.37949211	      0.00000000	      0.00000000	     89.94394064	    -26.43401399	     17.23807282	     43.66346180	     83.64805480	      0.00000000	      0.00000000
      4.37500000	     -7.89380099	     -8.43251558	      1.76852628	     -0.32134597	      0.70730457	     -0.97239922	     63.91138784	      0.77642143	     -7.17078704	     10.07330236	      0.17581229	    -18.99890831	      0.00000000	      0.00000000	     65.30252740	     -6.71724817	      1.77955493	     97.45216174	      1.70086109	     28.96906874	      0.00000000	      0.00000000	    -15.11424145	      0.83019593	      5.97152502	     89.94030434	    -14.08863669	     13.31242357	     37.91950958	     76.56766699	      0.00000000	      0.00000000	     89.94386919	    -26.45887310	     17.27880643	     43.67052743	     83.56265132	      0.00000000	      0.00000000
      4.38000000	     -7.90652445	     -8.44643457	      1.77542622	     -0.32133699	      0.70728660	     -0.97242564	     63.93242994	      0.79351604	     -7.19885432	     10.10442362	      0.17635546	    -19.03129795	      0.00000000	      0.00000000	     65.32717585	     -6.70658069	      1.79730159	     97.46683358	      1.70111716	     28.97336624	      0.00000000	      0.00000000	    -15.12160920	      0.86322430	      5.97125245	     89.94022242	    -14.07595328	     13.38178803	     37.96368141	     75.51688967	      0.00000000	      0.00000000	     89.94390928	    -26.45859558	     17.23338925	     43.63645371	     83.58582069	      0.00000000	      0.00000000
